<?xml version="1.0" encoding="UTF-8" standalone="no"?>
<!-- Created with Inkscape (http://www.inkscape.org/) -->

<svg
   width="10in"
   height="3in"
   viewBox="0 0 254 76.2"
   version="1.1"
   id="svg1284"
   sodipodi:docname="drawing.svg"
   inkscape:version="1.1.1 (3bf5ae0d25, 2021-09-20)"
   xmlns:inkscape="http://www.inkscape.org/namespaces/inkscape"
   xmlns:sodipodi="http://sodipodi.sourceforge.net/DTD/sodipodi-0.dtd"
   xmlns="http://www.w3.org/2000/svg"
   xmlns:svg="http://www.w3.org/2000/svg">
  <sodipodi:namedview
     id="namedview1286"
     pagecolor="#ffffff"
     bordercolor="#999999"
     borderopacity="1"
     inkscape:pageshadow="0"
     inkscape:pageopacity="0"
     inkscape:pagecheckerboard="0"
     inkscape:document-units="mm"
     showgrid="false"
     inkscape:zoom="0.51906082"
     inkscape:cx="266.82808"
     inkscape:cy="384.34802"
     inkscape:window-width="1920"
     inkscape:window-height="1009"
     inkscape:window-x="-8"
     inkscape:window-y="-8"
     inkscape:window-maximized="1"
     inkscape:current-layer="layer1"
     units="in"
     width="1000px">
    <inkscape:grid
       type="xygrid"
       id="grid2102" />
  </sodipodi:namedview>
  <defs
     id="defs1281" />
  <g
     inkscape:label="Layer 1"
     inkscape:groupmode="layer"
     id="layer1">
    <path
       style="fill:none;stroke:#000000;stroke-width:0.410391px;stroke-linecap:butt;stroke-linejoin:miter;stroke-opacity:1"
       d="m 1.8435792,10.665328 v 55.402888 h 8.2078348 v -18.46763 h 59.506804 v 18.46763 h 8.20784 V 25.029039 c -3.65025,-3.62206 -5.89981,-1.6952 -8.20784,0 V 39.392746 H 10.051414 V 10.665328 c -2.4659398,-2.1869496 -5.0717748,-3.2408096 -8.2078348,0 z"
       id="path1963"
       sodipodi:nodetypes="ccccccccccccc" />
    <path
       style="fill:none;stroke:#000000;stroke-width:0.630073px;stroke-linecap:butt;stroke-linejoin:miter;stroke-opacity:1"
       d="M 12.103372,37.340786 H 34.67492 v -6.15588 c -7.174027,-2.51138 -14.711595,-2.41288 -22.571548,0 z"
       id="path4359"
       sodipodi:nodetypes="ccccc" />
    <text
       xml:space="preserve"
       style="font-style:normal;font-weight:normal;font-size:62.9267px;line-height:1.25;font-family:sans-serif;fill:#000000;fill-opacity:1;stroke:none;stroke-width:1.56291"
       x="82.179276"
       y="65.136528"
       id="text6436"><tspan
         sodipodi:role="line"
         id="tspan6434"
         style="font-style:normal;font-variant:normal;font-weight:normal;font-stretch:normal;font-size:62.9267px;font-family:'Franklin Gothic Medium';-inkscape-font-specification:'Franklin Gothic Medium, ';stroke-width:1.56291"
         x="82.179276"
         y="65.136528">OSTEL</tspan></text>
    <path
       style="fill:#000000;stroke-width:0.0988306"
       d="m 23.504322,29.542326 c -3.800089,-0.0172 -7.597657,0.66675 -11.20867,1.78043 -0.176682,0.93975 -0.02614,2.00254 -0.07614,2.98969 0.04506,0.93178 -0.09097,1.90258 0.06949,2.80951 2.003032,0.1199 4.046831,0.0171 6.06552,0.0513 5.3039,0 10.607794,0 15.911689,0 0.44777,-0.35222 0.091,-1.15585 0.205187,-1.68763 -0.02705,-1.37471 0.05418,-2.77275 -0.04067,-4.13285 -0.939239,-0.46522 -2.061874,-0.69466 -3.09952,-0.97706 -2.559269,-0.61648 -5.197994,-0.85347 -7.826878,-0.83343 z"
       id="path37400" />
    <path
       style="fill:#000000;stroke-width:0.139767"
       d="m 5.7595022,8.7207684 c -1.489548,0.0191 -2.832873,0.95283 -3.802377,1.9848596 0,18.348178 0,36.696358 0,55.044538 0.595434,0.46961 1.664884,0.0754 2.441558,0.20529 1.81796,-0.0504 3.681763,0.10113 5.470849,-0.0765 0.106358,-6.10863 0.0152,-12.25117 0.04559,-18.37284 19.8964498,0 39.7928988,0 59.6893458,0 0,6.08133 0,12.16266 0,18.24399 0.59543,0.46961 1.66488,0.0754 2.44156,0.20529 1.86437,-0.0512 3.77531,0.10283 5.61062,-0.0765 0.10635,-6.68954 0.0152,-13.41298 0.0456,-20.11557 0,-6.88772 0,-13.77543 0,-20.663157 -1.25267,-1.24582 -3.14323,-2.50063 -5.00787,-1.82763 -1.14764,0.41096 -2.24097,1.10703 -3.08989,1.94775 0,4.729317 0,9.458657 0,14.188007 -19.896447,0 -39.792896,0 -59.6893458,0 0,-9.5676 0,-19.135207 0,-28.702788 C 8.8395642,9.6597784 7.3342762,8.7184284 5.7595232,8.7206484 Z"
       id="path37980" />
  </g>
</svg>
